<svg width="150" height="150" viewBox="0 0 150 150" fill="none" xmlns="http://www.w3.org/2000/svg">
<circle cx="75" cy="75" r="74.5" fill="#C4C4C4" stroke="black"/>
</svg>

<svg width="150" height="75" viewBox="0 0 150 75" fill="none" xmlns="http://www.w3.org/2000/svg">
<mask id="path-1-inside-1" fill="white">
<path d="M-6.55671e-06 75C-8.29566e-06 55.1088 7.90175 36.0322 21.967 21.967C36.0322 7.90177 55.1087 1.61994e-06 75 -1.19011e-07C94.8912 -1.85796e-06 113.968 7.90176 128.033 21.967C142.098 36.0322 150 55.1087 150 75L75 75L-6.55671e-06 75Z"/>
</mask>
<path d="M-6.55671e-06 75C-8.29566e-06 55.1088 7.90175 36.0322 21.967 21.967C36.0322 7.90177 55.1087 1.61994e-06 75 -1.19011e-07C94.8912 -1.85796e-06 113.968 7.90176 128.033 21.967C142.098 36.0322 150 55.1087 150 75L75 75L-6.55671e-06 75Z" fill="#C4C4C4" stroke="black" stroke-width="2" mask="url(#path-1-inside-1)"/>
</svg>

<svg width="113" height="75" viewBox="0 0 113 75" fill="none" xmlns="http://www.w3.org/2000/svg">
<mask id="path-1-inside-1" fill="white">
<path d="M-6.55671e-06 75C-7.70765e-06 61.8348 3.46546 48.9014 10.0481 37.5C16.6307 26.0986 26.0986 16.6307 37.5 10.0481C48.9014 3.46547 61.8347 1.03193e-06 75 -1.19012e-07C88.1652 -1.26995e-06 101.099 3.46547 112.5 10.0481L75 75L-6.55671e-06 75Z"/>
</mask>
<path d="M-6.55671e-06 75C-7.70765e-06 61.8348 3.46546 48.9014 10.0481 37.5C16.6307 26.0986 26.0986 16.6307 37.5 10.0481C48.9014 3.46547 61.8347 1.03193e-06 75 -1.19012e-07C88.1652 -1.26995e-06 101.099 3.46547 112.5 10.0481L75 75L-6.55671e-06 75Z" fill="#C4C4C4" stroke="black" stroke-width="2" mask="url(#path-1-inside-1)"/>
</svg>
